<svg width="547" height="372" viewBox="0 0 547 372" fill="none" xmlns="http://www.w3.org/2000/svg">
<g clip-path="url(#clip0_1_2)">
<path d="M547 174.653C547.001 189.453 541.668 203.708 532.067 214.568C522.467 225.428 509.306 232.094 495.217 233.232C494.742 233.269 494.26 233.307 493.778 233.33V177.568C493.779 177.01 493.66 176.46 493.431 175.957C493.202 175.454 492.869 175.011 492.455 174.66C492.407 174.609 492.354 174.563 492.297 174.525C492.244 174.48 492.189 174.44 492.131 174.404C491.626 174.063 491.047 173.861 490.448 173.815C489.849 173.769 489.248 173.881 488.7 174.14L488.103 172.77C488.756 172.458 489.465 172.296 490.182 172.295L449.216 135.334C449.532 134.957 449.863 134.588 450.194 134.219C457.917 125.693 467.904 119.788 478.865 117.267C489.825 114.747 501.256 115.727 511.679 120.081C522.103 124.434 531.04 131.961 537.336 141.69C543.633 151.418 546.999 162.9 547 174.653V174.653Z" fill="#F2F2F2"/>
<path d="M14.2244 214.714C14.0207 213.624 14.0476 212.5 14.3034 211.422C14.5592 210.344 15.0375 209.338 15.7047 208.475C16.3719 207.611 17.2118 206.912 18.1652 206.425C19.1185 205.938 20.1622 205.676 21.2227 205.658L53.56 165.342L61.6332 176.152L28.6769 213.673C28.5886 215.541 27.8492 217.31 26.5988 218.645C25.3483 219.98 23.6737 220.788 21.8923 220.916C20.1108 221.045 18.3463 220.484 16.9331 219.341C15.5198 218.198 14.5561 216.552 14.2244 214.714H14.2244Z" fill="#FFB8B8"/>
<path d="M167.783 165.093C167.557 165.436 167.356 165.797 167.184 166.172L131.875 171.458L126.513 164.329L115.183 171.398L125.833 188.789L168.897 175.494C170.033 176.572 171.456 177.261 172.975 177.471C174.495 177.681 176.04 177.401 177.404 176.67C178.768 175.938 179.887 174.788 180.613 173.374C181.338 171.96 181.635 170.348 181.464 168.752C181.293 167.157 180.663 165.654 179.657 164.443C178.65 163.232 177.316 162.371 175.83 161.973C174.345 161.576 172.78 161.662 171.342 162.219C169.905 162.776 168.663 163.779 167.783 165.093Z" fill="#FFB8B8"/>
<path d="M107.469 299.794L113.718 306.309L140.688 284.17L131.466 274.554L107.469 299.794Z" fill="#FFB8B8"/>
<path d="M119.991 324.952L100.353 304.474L107.908 296.528L119.958 309.094C120.955 310.133 121.746 311.367 122.287 312.727C122.827 314.086 123.107 315.544 123.11 317.016C123.113 318.489 122.839 319.947 122.304 321.309C121.769 322.671 120.983 323.909 119.991 324.952L119.991 324.952Z" fill="#2F2E41"/>
<path d="M74.2559 362.291H83.0734L87.2679 326.672H74.2544L74.2559 362.291Z" fill="#FFB8B8"/>
<path d="M100.078 370.864L72.3666 370.866L72.3661 359.652L89.371 359.652C90.7771 359.652 92.1693 359.942 93.4684 360.505C94.7674 361.068 95.9478 361.894 96.942 362.936C97.9363 363.977 98.725 365.213 99.2632 366.573C99.8013 367.934 100.078 369.392 100.078 370.864Z" fill="#2F2E41"/>
<path d="M72.3391 334.78L62.2956 257.207C60.7238 245.484 61.2116 233.558 63.7349 222.019C65.7959 212.745 68.5802 206.321 72.0107 202.927C72.5521 202.395 73.2451 202.063 73.9836 201.983L107.144 198.365C107.783 198.297 108.427 198.42 109.001 198.721C109.576 199.021 110.056 199.487 110.388 200.063L111.478 201.965C111.61 202.196 111.717 202.442 111.796 202.699L118.807 225.461C118.912 225.805 119.08 226.124 119.304 226.399C119.527 226.674 119.8 226.9 120.108 227.063C131.146 232.965 167.003 252.89 164.951 261.486C163.023 269.563 144.971 282.659 139.485 286.48C138.926 286.872 138.268 287.078 137.596 287.073C136.924 287.067 136.269 286.85 135.716 286.45L126.609 279.925C126.164 279.606 125.799 279.18 125.543 278.683C125.288 278.187 125.149 277.633 125.14 277.069C125.131 276.505 125.25 275.946 125.489 275.44C125.728 274.935 126.079 274.496 126.512 274.161L132.793 269.315C133.177 269.018 133.477 268.617 133.66 268.155C133.843 267.693 133.903 267.188 133.832 266.693C133.761 266.199 133.563 265.734 133.259 265.348C132.954 264.963 132.555 264.672 132.105 264.506L98.3748 252.111C97.9961 251.972 97.5919 251.926 97.1934 251.976C96.7949 252.026 96.4126 252.171 96.076 252.399C95.7393 252.628 95.4573 252.935 95.2516 253.296C95.0458 253.657 94.9219 254.063 94.8892 254.482L88.67 334.089C88.6014 334.943 88.2399 335.741 87.6525 336.337C87.065 336.933 86.2914 337.286 85.4746 337.331L75.852 337.835C75.7934 337.838 75.7353 337.84 75.6773 337.84C74.8606 337.843 74.0708 337.534 73.4562 336.971C72.8416 336.407 72.4443 335.628 72.3391 334.78V334.78Z" fill="#6E67E3"/>
<path d="M87.5472 134.14C97.3031 134.14 105.212 125.857 105.212 115.639C105.212 105.422 97.3031 97.1392 87.5472 97.1392C77.7913 97.1392 69.8826 105.422 69.8826 115.639C69.8826 125.857 77.7913 134.14 87.5472 134.14Z" fill="#FFB8B8"/>
<path d="M71.025 199.758L58.0222 150.071L58.2449 149.914C58.5241 149.716 86.5506 130.334 119.364 145.954L119.959 146.311L112.254 197.883C112.086 199.06 111.531 200.138 110.685 200.933C109.839 201.727 108.755 202.187 107.619 202.234L75.9142 203.511C75.8503 203.513 75.7866 203.515 75.7232 203.515C74.6544 203.518 73.6147 203.151 72.7653 202.471C71.9158 201.792 71.3041 200.838 71.025 199.758V199.758Z" fill="#CCCCCC"/>
<path d="M57.5274 182.418L46.698 169.375C46.1765 168.749 45.8828 167.949 45.8688 167.118C45.8548 166.287 46.1213 165.477 46.6215 164.832L57.9424 150.185L66.6329 152.667L71.2403 169.556L62.8395 182.126C62.5465 182.567 62.1608 182.931 61.712 183.192C61.2633 183.452 60.7635 183.602 60.2511 183.628C60.1905 183.631 60.1303 183.633 60.07 183.633C59.5877 183.634 59.1108 183.526 58.672 183.316C58.2332 183.106 57.8428 182.8 57.5274 182.418V182.418Z" fill="#CCCCCC"/>
<path d="M117.413 179.701C116.9 179.674 116.4 179.525 115.952 179.264C115.503 179.004 115.117 178.639 114.824 178.198L106.423 165.629L110.464 147.851L118.466 145.565L119.959 146.311L131.042 160.904C131.542 161.55 131.809 162.359 131.795 163.19C131.781 164.022 131.487 164.821 130.966 165.448L120.136 178.49C119.821 178.872 119.431 179.179 118.992 179.389C118.553 179.598 118.076 179.706 117.594 179.705C117.534 179.705 117.473 179.704 117.413 179.701Z" fill="#CCCCCC"/>
<path d="M493.778 173.877C493.785 174.064 493.723 174.247 493.605 174.389C493.481 174.541 493.305 174.635 493.115 174.65C492.925 174.666 492.737 174.602 492.592 174.472L490.182 172.295L449.216 135.334L334.314 31.6511C333.659 31.0635 332.824 30.7411 331.961 30.7425C331.098 30.7439 330.265 31.0689 329.611 31.6586L174.879 172.446L173.484 173.711C173.43 173.761 173.37 173.801 173.304 173.832C173.189 173.885 173.062 173.906 172.937 173.892C172.758 173.872 172.591 173.783 172.47 173.643C172.407 173.569 172.359 173.483 172.329 173.389C172.298 173.296 172.286 173.197 172.292 173.098C172.298 173 172.322 172.903 172.364 172.814C172.405 172.726 172.463 172.646 172.534 172.581L172.729 172.4L328.669 30.5213C329.585 29.697 330.752 29.2426 331.96 29.2398C333.168 29.2371 334.337 29.6862 335.256 30.5062L450.194 134.219L493.526 173.327C493.602 173.396 493.664 173.48 493.707 173.574C493.75 173.669 493.774 173.772 493.778 173.877V173.877Z" fill="#3F3D56"/>
<path d="M406.416 196.12L404.524 190.666L398.008 171.836L383.969 131.289L368.276 85.9669L339.974 4.21838C339.419 2.62421 338.282 1.32565 336.814 0.607059C335.346 -0.111534 333.666 -0.19159 332.142 0.38442L168.514 62.5187C166.992 63.1001 165.751 64.29 165.065 65.8277C164.379 67.3653 164.303 69.1252 164.853 70.7214L204.978 186.614L205.661 188.595L247.779 208.586L259.617 214.205L261.537 215.116L311.659 238.911L313.601 238.173L346.476 225.692L396.066 206.861L402.748 204.323C404.271 203.742 405.512 202.552 406.2 201.015C406.887 199.477 406.965 197.717 406.416 196.12V196.12Z" fill="#E6E6E6"/>
<path d="M337.802 99.5853C336.986 97.2391 335.315 95.3277 333.155 94.2701C330.995 93.2125 328.523 93.0951 326.281 93.9436L261.537 118.537L230.273 130.408C229.162 130.828 228.141 131.474 227.269 132.308C226.396 133.142 225.689 134.148 225.188 135.268C224.687 136.388 224.402 137.601 224.349 138.837C224.295 140.072 224.475 141.307 224.878 142.47C225.28 143.633 225.898 144.702 226.695 145.614C227.492 146.527 228.453 147.267 229.523 147.79C230.594 148.314 231.752 148.612 232.932 148.666C234.112 148.721 235.291 148.531 236.401 148.109L261.537 138.565L332.416 111.652C334.656 110.797 336.481 109.047 337.491 106.785C338.501 104.523 338.613 101.934 337.802 99.5853V99.5853Z" fill="white"/>
<path d="M349.202 132.517C348.386 130.171 346.714 128.259 344.555 127.202C342.395 126.144 339.923 126.026 337.68 126.875L326.712 131.04L261.537 155.792L241.673 163.331C239.433 164.184 237.607 165.933 236.598 168.195C235.589 170.456 235.478 173.045 236.29 175.392C237.102 177.738 238.771 179.652 240.929 180.711C243.087 181.77 245.559 181.888 247.8 181.04L261.537 175.82L343.815 144.576C344.002 144.508 344.182 144.425 344.362 144.342C346.451 143.383 348.113 141.627 349.012 139.431C349.911 137.235 349.979 134.763 349.202 132.517V132.517Z" fill="white"/>
<path d="M360.724 165.795C359.909 163.449 358.239 161.537 356.081 160.48C353.922 159.422 351.451 159.304 349.209 160.153L318.449 171.836L294.635 180.882L261.537 193.446L253.194 196.617C251.266 197.353 249.636 198.755 248.572 200.594C247.509 202.432 247.077 204.595 247.347 206.725C247.429 207.359 247.574 207.983 247.779 208.586L259.617 214.205L261.537 213.474H261.551L321.613 190.666L355.337 177.861C357.578 177.008 359.405 175.258 360.415 172.996C361.425 170.733 361.536 168.143 360.724 165.795H360.724Z" fill="white"/>
<path d="M293.312 67.2112C292.496 64.8651 290.824 62.9537 288.665 61.8961C286.505 60.8385 284.033 60.7211 281.79 61.5695L244.607 75.6851C242.367 76.5378 240.541 78.287 239.532 80.5484C238.523 82.8098 238.412 85.3983 239.224 87.7452C240.036 90.0921 241.705 92.0053 243.863 93.0644C246.021 94.1236 248.493 94.242 250.734 93.3937L262.501 88.927L270.29 85.9668L287.925 79.2705C290.165 78.4174 291.99 76.6685 293 74.4076C294.01 72.1468 294.122 69.5587 293.312 67.2112Z" fill="white"/>
<path d="M441.7 85.9668H267.65C266.624 85.9679 265.614 86.2396 264.714 86.7569C263.814 87.2743 263.053 88.0206 262.501 88.927C261.87 89.9533 261.535 91.1486 261.537 92.3693V215.116L311.659 238.911L318.722 242.263L329.877 247.558C330.53 247.867 331.238 248.027 331.955 248.027C332.672 248.027 333.381 247.867 334.034 247.558L345.189 242.263L380.099 225.692L412.637 210.243L447.813 193.551V92.3693C447.812 90.6716 447.168 89.0437 446.022 87.8433C444.875 86.6428 443.321 85.9679 441.7 85.9668Z" fill="#6C63FF"/>
<path d="M405.739 171.836H303.611C301.289 171.837 299.057 172.78 297.384 174.466C295.711 176.152 294.726 178.452 294.635 180.882C294.623 181.004 294.618 181.128 294.621 181.251C294.624 183.747 295.572 186.14 297.258 187.905C298.943 189.67 301.228 190.663 303.611 190.666H405.739C408.124 190.666 410.41 189.674 412.096 187.909C413.782 186.143 414.729 183.748 414.729 181.251C414.729 178.754 413.782 176.359 412.096 174.593C410.41 172.827 408.124 171.836 405.739 171.836Z" fill="white"/>
<path d="M411.558 209.106C409.937 207.653 407.873 206.857 405.739 206.861H303.611C301.227 206.861 298.94 207.853 297.254 209.619C295.568 211.384 294.621 213.779 294.621 216.276C294.621 218.773 295.568 221.168 297.254 222.934C298.94 224.7 301.227 225.692 303.611 225.692H380.099L412.637 210.243C412.308 209.833 411.948 209.452 411.558 209.106Z" fill="white"/>
<path d="M318.722 242.263L329.877 247.558C330.53 247.867 331.238 248.027 331.955 248.027C332.672 248.027 333.381 247.867 334.034 247.558L345.189 242.263H318.722Z" fill="white"/>
<path d="M382.897 131.696C382.264 129.883 381.115 128.318 379.605 127.212C378.094 126.106 376.296 125.512 374.454 125.512H334.897C333.17 125.513 331.48 126.035 330.028 127.016C328.577 127.996 327.426 129.393 326.712 131.04C326.179 132.26 325.905 133.586 325.907 134.927C325.91 137.423 326.858 139.816 328.543 141.581C330.229 143.346 332.513 144.339 334.897 144.342H374.454C375.9 144.343 377.325 143.977 378.607 143.278C379.89 142.578 380.993 141.564 381.821 140.323C382.65 139.082 383.181 137.649 383.368 136.147C383.555 134.645 383.394 133.118 382.897 131.696Z" fill="white"/>
<path d="M376.611 225.692L341.701 242.263L333.437 246.187C332.971 246.407 332.466 246.521 331.955 246.521C331.444 246.521 330.939 246.407 330.474 246.187L322.21 242.263H318.722L329.877 247.558C330.53 247.867 331.239 248.027 331.955 248.027C332.672 248.027 333.381 247.867 334.034 247.558L345.189 242.263L380.099 225.692H376.611ZM376.611 225.692L341.701 242.263L333.437 246.187C332.971 246.407 332.466 246.521 331.955 246.521C331.444 246.521 330.939 246.407 330.474 246.187L322.21 242.263H318.722L329.877 247.558C330.53 247.867 331.239 248.027 331.955 248.027C332.672 248.027 333.381 247.867 334.034 247.558L345.189 242.263L380.099 225.692H376.611ZM376.611 225.692L341.701 242.263L333.437 246.187C332.971 246.407 332.466 246.521 331.955 246.521C331.444 246.521 330.939 246.407 330.474 246.187L322.21 242.263H318.722L329.877 247.558C330.53 247.867 331.239 248.027 331.955 248.027C332.672 248.027 333.381 247.867 334.034 247.558L345.189 242.263L380.099 225.692H376.611ZM493.778 173.877C493.513 173.6 493.221 173.353 492.908 173.139C492.201 172.659 491.391 172.374 490.551 172.309C489.711 172.245 488.869 172.403 488.103 172.77L411.558 209.106L376.611 225.692L341.7 242.263L333.437 246.187C332.971 246.407 332.466 246.521 331.955 246.521C331.444 246.521 330.939 246.407 330.474 246.187L322.21 242.263L313.601 238.173L261.551 213.474L261.537 213.467L247.347 206.725L204.978 186.614L175.807 172.77C175.51 172.626 175.199 172.517 174.879 172.446C174.175 172.261 173.44 172.246 172.729 172.401C171.591 172.644 170.569 173.291 169.834 174.233C169.099 175.174 168.696 176.352 168.694 177.568V366.727C168.695 368.125 169.226 369.466 170.17 370.454C171.114 371.442 172.394 371.998 173.728 372H490.182C491.517 371.998 492.797 371.442 493.74 370.454C494.684 369.466 495.215 368.125 495.217 366.727V177.568C495.219 176.187 494.702 174.861 493.778 173.877V173.877ZM493.778 366.727C493.778 367.726 493.399 368.684 492.725 369.39C492.05 370.096 491.136 370.493 490.182 370.494H173.728C172.775 370.493 171.86 370.096 171.186 369.39C170.512 368.684 170.133 367.726 170.132 366.727V177.568C170.133 176.938 170.284 176.319 170.571 175.766C170.859 175.214 171.274 174.745 171.779 174.404C172.135 174.166 172.526 173.993 172.937 173.892C173.058 173.864 173.181 173.844 173.304 173.832C173.445 173.81 173.586 173.8 173.728 173.801C174.24 173.802 174.745 173.918 175.21 174.14L205.661 188.595L247.779 208.586L259.617 214.205L261.537 215.116L311.659 238.911L318.722 242.263L329.877 247.558C330.53 247.867 331.238 248.027 331.955 248.027C332.672 248.027 333.381 247.867 334.034 247.558L345.189 242.263L380.099 225.692L412.637 210.243L488.7 174.14C489.248 173.881 489.849 173.769 490.448 173.815C491.047 173.861 491.626 174.063 492.131 174.404C492.189 174.44 492.244 174.48 492.297 174.525C492.354 174.563 492.407 174.609 492.455 174.66C492.869 175.011 493.202 175.454 493.431 175.957C493.66 176.46 493.779 177.01 493.778 177.568L493.778 366.727ZM376.611 225.692L341.701 242.263L333.437 246.187C332.971 246.407 332.466 246.521 331.955 246.521C331.444 246.521 330.939 246.407 330.474 246.187L322.21 242.263H318.722L329.877 247.558C330.53 247.867 331.239 248.027 331.955 248.027C332.672 248.027 333.381 247.867 334.034 247.558L345.189 242.263L380.099 225.692H376.611ZM376.611 225.692L341.701 242.263L333.437 246.187C332.971 246.407 332.466 246.521 331.955 246.521C331.444 246.521 330.939 246.407 330.474 246.187L322.21 242.263H318.722L329.877 247.558C330.53 247.867 331.239 248.027 331.955 248.027C332.672 248.027 333.381 247.867 334.034 247.558L345.189 242.263L380.099 225.692H376.611ZM259.617 214.205L261.537 215.116V213.474L259.617 214.205ZM376.611 225.692L341.701 242.263L333.437 246.187C332.971 246.407 332.466 246.521 331.955 246.521C331.444 246.521 330.939 246.407 330.474 246.187L322.21 242.263H318.722L329.877 247.558C330.53 247.867 331.239 248.027 331.955 248.027C332.672 248.027 333.381 247.867 334.034 247.558L345.189 242.263L380.099 225.692H376.611Z" fill="#3F3D56"/>
<path d="M126.241 372H44.9695C44.7787 372 44.5958 371.921 44.4609 371.779C44.326 371.638 44.2503 371.447 44.2503 371.247C44.2503 371.047 44.326 370.855 44.4609 370.714C44.5958 370.573 44.7787 370.493 44.9695 370.493H126.241C126.431 370.493 126.614 370.573 126.749 370.714C126.884 370.855 126.96 371.047 126.96 371.247C126.96 371.447 126.884 371.638 126.749 371.779C126.614 371.921 126.431 372 126.241 372Z" fill="#3F3D56"/>
<path d="M80.8307 129.169C79.5039 128.464 78.4006 127.371 77.6545 126.023C76.9083 124.674 76.5513 123.129 76.6266 121.572C76.7019 120.016 77.2064 118.516 78.0788 117.254C78.9513 115.991 80.1544 115.021 81.5426 114.46C86.873 112.306 92.8488 116.702 98.4363 115.452C104.005 114.206 107.227 107.233 105.898 101.434C104.568 95.6347 99.7302 91.2665 94.3952 89.1804C90.9109 87.8214 87.1794 87.3003 83.4768 87.6557C79.7742 88.0112 76.1953 89.234 73.005 91.2338C69.8475 93.2922 67.2179 96.1271 65.3447 99.4921C63.4715 102.857 62.4114 106.65 62.2566 110.542C62.184 114.437 63.0927 118.284 64.8912 121.694C66.6896 125.104 69.3142 127.958 72.5008 129.969C73.9209 130.826 75.5739 131.514 77.1711 131.128C78.4823 130.682 79.7176 130.021 80.8307 129.169V129.169Z" fill="#2F2E41"/>
<path d="M75.1062 90.783C70.4059 84.2536 64.0608 78.8897 56.6774 76.2303C49.2941 73.5709 40.8568 73.7844 33.9225 77.5426C26.9882 81.3008 21.8168 88.7648 21.277 96.9224C20.3787 110.499 31.4557 122.04 32.5925 135.597C32.9528 139.894 32.2868 144.218 30.6545 148.179C29.0222 152.139 26.4749 155.612 23.2419 158.285C20.009 160.958 16.192 162.746 12.1347 163.49C8.07742 164.233 3.90732 163.908 0 162.543C2.78302 164.942 6.00971 166.713 9.47738 167.743C12.945 168.774 16.5788 169.042 20.1503 168.532C23.7159 167.971 27.1178 166.587 30.1092 164.479C33.1006 162.371 35.6065 159.592 37.4453 156.344C39.9383 151.807 40.962 146.538 41.3596 141.32C41.9842 133.071 41.1384 124.771 38.8656 116.845C37.6231 112.521 35.9381 108.071 36.726 103.631C37.1752 101.322 38.2623 99.2012 39.8523 97.5335C41.4424 95.8658 43.4653 94.7241 45.6698 94.2504C49.2323 93.5513 52.8746 94.69 56.2763 96.0005C59.6779 97.311 63.1075 98.8275 66.7311 98.9143C70.3546 99.001 74.3014 97.2639 75.7017 93.7627L75.1062 90.783Z" fill="#2F2E41"/>
</g>
<defs>
<clipPath id="clip0_1_2">
<rect width="547" height="372" fill="white"/>
</clipPath>
</defs>
</svg>
