<svg width="288" height="288" viewBox="0 0 288 288" fill="none" xmlns="http://www.w3.org/2000/svg">
<g clip-path="url(#clip0_1_7)">
<path d="M144 0C64.5367 0 0.000177233 64.5364 2.51529e-09 144C-0.000465228 223.464 64.5363 288 144 288C223.464 288 288 223.464 288 144C288 64.5364 223.463 0 144 0ZM144 11.0769C217.477 11.0769 276.923 70.5223 276.923 144C276.924 217.478 217.478 276.923 144 276.923C70.5224 276.923 11.0765 217.478 11.0769 144C11.0771 70.5223 70.5228 11.0769 144 11.0769ZM138.462 78.0793C119.576 80.7411 105.231 96.5439 105.231 116.091V121.846H138.462V109.082C135.205 107.158 132.923 103.764 132.923 99.6923C132.923 95.6204 135.205 92.2281 138.462 90.3029V78.0793ZM149.538 78.0793V90.3029C152.795 92.2281 155.077 95.6204 155.077 99.6923C155.077 103.764 152.795 107.158 149.538 109.082V121.846H182.769V116.091C182.769 96.5439 168.424 80.7411 149.538 78.0793ZM105.231 132.923V160.832C105.231 182.27 122.411 199.385 144 199.385C165.589 199.385 182.769 182.27 182.769 160.832V132.923H105.231Z" fill="white"/>
</g>
<defs>
<clipPath id="clip0_1_7">
<rect width="288" height="288" fill="white"/>
</clipPath>
</defs>
</svg>
